<?xml version="1.0" encoding="utf-8"?>
<!-- Generator: Adobe Illustrator 26.0.3, SVG Export Plug-In . SVG Version: 6.00 Build 0)  -->
<svg version="1.1" id="Layer_1" xmlns="http://www.w3.org/2000/svg" xmlns:xlink="http://www.w3.org/1999/xlink" x="0px" y="0px"
	 viewBox="0 0 118 40" style="enable-background:new 0 0 118 40;" xml:space="preserve">
<style type="text/css">
	.st0{fill:#7C164C;}
	.st1{fill:#FE346E;}
	.st2{fill:#B21F66;}
	.st3{fill:#FFFFFF;}
</style>
<g id="OBJECTS">
	<g>
		<g>
			<g>
				<g>
					<g>
						<g>
							<path class="st0" d="M28.3,20.8c0.5-0.7,1.4-0.5,1.8,0.2c3.2,4.9,2.7,10.2,1.4,14.1c5-3.3,8.3-9,8.3-15.4
								c0-1.1-0.1-2.1-0.3-3.2C32.8,12,28.4,20.5,28.3,20.8z"/>
						</g>
						<path class="st1" d="M39.6,16.5c-6.8-4.5-11.2,4-11.3,4.3c0,0,0,0,0,0l-6.1,8.4c-0.4,0.6-1.3,0.6-1.7,0l-6.1-8.4c0,0,0,0,0,0
							C14.3,20.5,10,12,3.1,16.5c0.7-4.3,3-8.1,6.2-10.9c0,0,0,0,0,0c4.1,0,9.4,7.7,11.3,10.7c0.3,0.5,1.1,0.5,1.4,0
							c1.9-3,7.2-10.7,11.3-10.7c0,0,0,0,0,0C36.6,8.4,38.9,12.2,39.6,16.5z"/>
					</g>
				</g>
				<g>
					<path class="st2" d="M14.4,20.8c-0.5-0.7-1.4-0.5-1.8,0.2c-3.2,4.9-2.7,10.2-1.4,14.1c-5-3.3-8.3-9-8.3-15.4
						c0-1.1,0.1-2.1,0.3-3.2C10,12,14.3,20.5,14.4,20.8z"/>
				</g>
			</g>
		</g>
	</g>
</g>
<g>
	<g>
		<path class="st3" d="M62.7,5v15.6h-3.8v-9.3l-3.5,9.3h-3.1l-3.5-9.4v9.4h-3.8V5h4.5l4.4,10.8L58.3,5H62.7z"/>
		<path class="st3" d="M67.8,20c-1-0.5-1.7-1.3-2.3-2.2c-0.6-1-0.8-2.1-0.8-3.4c0-1.3,0.3-2.4,0.8-3.4c0.6-1,1.3-1.7,2.3-2.2
			c1-0.5,2.1-0.8,3.3-0.8c1.2,0,2.3,0.3,3.3,0.8c1,0.5,1.7,1.3,2.3,2.2c0.6,1,0.8,2.1,0.8,3.4c0,1.3-0.3,2.4-0.9,3.4
			c-0.6,1-1.3,1.7-2.3,2.2c-1,0.5-2.1,0.8-3.3,0.8C69.9,20.8,68.8,20.5,67.8,20z M72.9,16.7c0.5-0.5,0.8-1.3,0.8-2.3
			c0-1-0.2-1.8-0.7-2.3c-0.5-0.5-1.1-0.8-1.8-0.8c-0.7,0-1.4,0.3-1.8,0.8c-0.5,0.5-0.7,1.3-0.7,2.3c0,1,0.2,1.8,0.7,2.3
			c0.5,0.5,1.1,0.8,1.8,0.8C71.8,17.5,72.4,17.2,72.9,16.7z"/>
		<path class="st3" d="M85.2,17l2.7-8.8h4l-4.4,12.4h-4.7L78.4,8.2h4.1L85.2,17z"/>
		<path class="st1" d="M93.8,6.3c-0.4-0.4-0.6-0.9-0.6-1.5c0-0.6,0.2-1.1,0.6-1.5c0.4-0.4,1-0.6,1.6-0.6C96,2.8,96.6,3,97,3.4
			c0.4,0.4,0.6,0.9,0.6,1.5c0,0.6-0.2,1.1-0.6,1.5c-0.4,0.4-1,0.6-1.6,0.6C94.7,6.9,94.2,6.7,93.8,6.3z"/>
		<rect x="93.5" y="8.2" class="st3" width="3.8" height="12.4"/>
		<path class="st3" d="M111.6,15.3h-8.6c0.1,0.8,0.3,1.4,0.7,1.8s1,0.6,1.6,0.6c0.9,0,1.6-0.4,2-1.2h4c-0.2,0.8-0.6,1.5-1.1,2.2
			c-0.5,0.7-1.2,1.2-2,1.5c-0.8,0.4-1.7,0.6-2.7,0.6c-1.2,0-2.3-0.3-3.2-0.8c-0.9-0.5-1.7-1.3-2.2-2.2c-0.5-1-0.8-2.1-0.8-3.4
			s0.3-2.4,0.8-3.4c0.5-1,1.3-1.7,2.2-2.2c0.9-0.5,2-0.8,3.3-0.8c1.2,0,2.3,0.3,3.2,0.8c0.9,0.5,1.7,1.2,2.2,2.2s0.8,2,0.8,3.3
			C111.7,14.5,111.7,14.9,111.6,15.3z M107.8,13.2c0-0.7-0.2-1.2-0.7-1.6c-0.4-0.4-1-0.6-1.7-0.6c-0.6,0-1.2,0.2-1.6,0.6
			s-0.7,0.9-0.8,1.6H107.8z"/>
	</g>
</g>
<path class="st1" d="M91.4,39.4H46.1c-0.8,0-1.4-0.6-1.4-1.4V26.5c0-0.8,0.6-1.4,1.4-1.4h45.3c0.8,0,1.4,0.6,1.4,1.4V38
	C92.7,38.8,92.1,39.4,91.4,39.4z"/>
<g>
	<g>
		<path class="st3" d="M53.8,27.7v1.8h-3.7v1.9h2.8v1.7h-2.8v3.7h-2.2v-9.1H53.8z"/>
		<path class="st3" d="M62.1,29.6v7.2h-2.2v-1c-0.2,0.3-0.5,0.6-0.9,0.8c-0.4,0.2-0.8,0.3-1.3,0.3c-0.6,0-1-0.1-1.5-0.4
			c-0.4-0.2-0.7-0.6-1-1.1s-0.3-1-0.3-1.6v-4.2h2.2v3.9c0,0.5,0.1,0.9,0.4,1.1c0.2,0.3,0.6,0.4,1,0.4c0.4,0,0.8-0.1,1-0.4
			c0.2-0.3,0.4-0.6,0.4-1.1v-3.9H62.1z"/>
		<path class="st3" d="M65,36.6c-0.5-0.2-0.9-0.5-1.2-0.9c-0.3-0.4-0.4-0.8-0.5-1.3h2.2c0,0.3,0.1,0.5,0.3,0.6
			c0.2,0.2,0.5,0.2,0.8,0.2c0.3,0,0.5-0.1,0.6-0.2c0.1-0.1,0.2-0.2,0.2-0.4c0-0.2-0.1-0.4-0.3-0.5c-0.2-0.1-0.6-0.2-1-0.3
			c-0.5-0.1-0.9-0.2-1.3-0.4c-0.3-0.1-0.6-0.3-0.9-0.6c-0.2-0.3-0.4-0.7-0.4-1.2c0-0.4,0.1-0.8,0.3-1.1c0.2-0.3,0.6-0.6,1-0.8
			c0.4-0.2,1-0.3,1.6-0.3c0.9,0,1.6,0.2,2.1,0.7c0.5,0.4,0.8,1,0.9,1.8h-2c0-0.3-0.1-0.4-0.3-0.6c-0.2-0.1-0.4-0.2-0.7-0.2
			c-0.3,0-0.5,0-0.6,0.1c-0.1,0.1-0.2,0.2-0.2,0.4c0,0.2,0.1,0.4,0.3,0.5c0.2,0.1,0.6,0.2,1,0.3c0.5,0.1,1,0.3,1.3,0.4
			c0.3,0.1,0.6,0.3,0.9,0.6c0.3,0.3,0.4,0.7,0.4,1.2c0,0.4-0.1,0.8-0.4,1.1c-0.2,0.3-0.6,0.6-1,0.8c-0.4,0.2-1,0.3-1.5,0.3
			C66,36.9,65.4,36.8,65,36.6z"/>
		<path class="st3" d="M71.1,28.5c-0.2-0.2-0.4-0.5-0.4-0.8c0-0.3,0.1-0.6,0.4-0.9c0.2-0.2,0.6-0.3,0.9-0.3c0.4,0,0.7,0.1,0.9,0.3
			c0.2,0.2,0.4,0.5,0.4,0.9c0,0.3-0.1,0.6-0.4,0.8s-0.6,0.3-0.9,0.3C71.6,28.8,71.3,28.7,71.1,28.5z M73.1,29.6v7.2h-2.2v-7.2H73.1z
			"/>
		<path class="st3" d="M76.1,36.5c-0.6-0.3-1-0.7-1.3-1.3c-0.3-0.6-0.5-1.2-0.5-2c0-0.7,0.2-1.4,0.5-2c0.3-0.6,0.8-1,1.3-1.3
			c0.6-0.3,1.2-0.5,1.9-0.5s1.3,0.2,1.9,0.5c0.6,0.3,1,0.7,1.3,1.3c0.3,0.6,0.5,1.2,0.5,2c0,0.7-0.2,1.4-0.5,2
			c-0.3,0.6-0.8,1-1.4,1.3c-0.6,0.3-1.2,0.5-1.9,0.5C77.3,36.9,76.7,36.8,76.1,36.5z M79.1,34.5c0.3-0.3,0.4-0.8,0.4-1.3
			c0-0.6-0.1-1-0.4-1.3c-0.3-0.3-0.6-0.5-1.1-0.5c-0.4,0-0.8,0.2-1.1,0.5c-0.3,0.3-0.4,0.8-0.4,1.3c0,0.6,0.1,1,0.4,1.3
			c0.3,0.3,0.6,0.5,1.1,0.5C78.4,35,78.8,34.8,79.1,34.5z"/>
		<path class="st3" d="M89.4,30.3c0.5,0.5,0.8,1.3,0.8,2.3v4.2h-2.2v-3.9c0-0.5-0.1-0.9-0.4-1.1c-0.3-0.3-0.6-0.4-1-0.4
			c-0.4,0-0.8,0.1-1,0.4c-0.3,0.3-0.4,0.6-0.4,1.1v3.9H83v-7.2h2.2v1c0.2-0.3,0.5-0.6,0.9-0.8c0.4-0.2,0.8-0.3,1.3-0.3
			C88.2,29.5,88.9,29.8,89.4,30.3z"/>
	</g>
</g>
</svg>
